<svg width="34" height="35" viewBox="0 0 34 35" fill="none" xmlns="http://www.w3.org/2000/svg">
<path d="M24.6733 11.6933C24.89 12.2766 25.0033 12.8916 25.0117 13.5116C25.0667 14.5483 25.0667 14.8633 25.0667 17.4883C25.0667 20.1116 25.06 20.4266 25.0117 21.4633C25.0032 22.0842 24.8888 22.6991 24.6733 23.2816C24.5095 23.7057 24.2589 24.0908 23.9374 24.4123C23.6159 24.7338 23.2308 24.9845 22.8067 25.1483C22.2233 25.3649 21.6083 25.4783 20.9883 25.4883C19.9517 25.5416 19.6367 25.5416 17.0117 25.5416C14.3883 25.5416 14.0733 25.5366 13.0367 25.4883C12.4156 25.4793 11.8007 25.3643 11.2183 25.1483C10.7942 24.9845 10.4091 24.7338 10.0876 24.4123C9.76613 24.0908 9.51545 23.7057 9.35166 23.2816C9.13583 22.6998 9.02084 22.0854 9.01166 21.4649C8.95833 20.4266 8.95833 20.1116 8.95833 17.4883C8.95833 14.8633 8.96333 14.5483 9.01166 13.5116C9.02166 12.8916 9.135 12.2766 9.35166 11.6949C9.51545 11.2708 9.76613 10.8857 10.0876 10.5642C10.4091 10.2427 10.7942 9.99204 11.2183 9.82825C11.8017 9.61159 12.415 9.49659 13.035 9.48825C14.0733 9.43325 14.3883 9.43325 17.0117 9.43325C19.6367 9.43325 19.9517 9.43992 20.9883 9.48825C21.6083 9.49659 22.2233 9.61158 22.805 9.82658C23.6633 10.1599 24.3433 10.8366 24.6733 11.6933ZM17 22.5549C17.6638 22.5549 18.3212 22.4242 18.9345 22.1701C19.5478 21.9161 20.105 21.5437 20.5744 21.0743C21.0438 20.6049 21.4162 20.0477 21.6702 19.4344C21.9242 18.8211 22.055 18.1638 22.055 17.4999C22.055 16.8361 21.9242 16.1788 21.6702 15.5655C21.4162 14.9522 21.0438 14.3949 20.5744 13.9255C20.105 13.4561 19.5478 13.0837 18.9345 12.8297C18.3212 12.5757 17.6638 12.4449 17 12.4449C15.6593 12.4449 14.3736 12.9775 13.4256 13.9255C12.4776 14.8735 11.945 16.1592 11.945 17.4999C11.945 18.8406 12.4776 20.1263 13.4256 21.0743C14.3736 22.0223 15.6593 22.5549 17 22.5549ZM22.255 13.4266C22.4155 13.4351 22.576 13.4109 22.7268 13.3553C22.8775 13.2998 23.0154 13.2141 23.132 13.1036C23.2486 12.993 23.3415 12.8599 23.4049 12.7122C23.4684 12.5646 23.5011 12.4056 23.5011 12.2449C23.5011 12.0842 23.4684 11.9252 23.4049 11.7776C23.3415 11.63 23.2486 11.4968 23.132 11.3863C23.0154 11.2757 22.8775 11.19 22.7268 11.1345C22.576 11.079 22.4155 11.0547 22.255 11.0633C21.9525 11.0793 21.6676 11.2108 21.4591 11.4307C21.2507 11.6505 21.1344 11.9419 21.1344 12.2449C21.1344 12.5479 21.2507 12.8393 21.4591 13.0592C21.6676 13.279 21.9525 13.4105 22.255 13.4266ZM17 20.7783C16.1305 20.7783 15.2967 20.4329 14.6819 19.818C14.0671 19.2032 13.7217 18.3694 13.7217 17.4999C13.7217 16.6304 14.0671 15.7966 14.6819 15.1818C15.2967 14.567 16.1305 14.2216 17 14.2216C17.8695 14.2216 18.7033 14.567 19.3181 15.1818C19.9329 15.7966 20.2783 16.6304 20.2783 17.4999C20.2783 18.3694 19.9329 19.2032 19.3181 19.818C18.7033 20.4329 17.8695 20.7783 17 20.7783ZM17 0.833252C7.795 0.833252 0.333332 8.29492 0.333332 17.4999C0.333332 26.7049 7.795 34.1666 17 34.1666C26.205 34.1666 33.6667 26.7049 33.6667 17.4999C33.6667 15.3112 33.2356 13.144 32.398 11.1219C31.5604 9.09977 30.3328 7.26245 28.7851 5.71481C27.2375 4.16716 25.4001 2.9395 23.3781 2.10193C21.356 1.26435 19.1887 0.833252 17 0.833252ZM26.7833 21.5549C26.7667 22.3716 26.6133 23.1783 26.3267 23.9416C26.0741 24.5957 25.6876 25.1899 25.1919 25.6859C24.6963 26.1818 24.1023 26.5687 23.4483 26.8216C22.6835 27.1065 21.876 27.2598 21.06 27.2749C20.0117 27.3249 19.6783 27.3366 17.0067 27.3366C14.3333 27.3366 13.975 27.3366 12.9517 27.2749C12.1357 27.2598 11.3281 27.1065 10.5633 26.8216C9.90932 26.5687 9.31541 26.1818 8.81972 25.6859C8.32403 25.1899 7.93752 24.5957 7.685 23.9416C7.39969 23.1774 7.24585 22.3705 7.23 21.5549C7.18167 20.5049 7.17 20.1716 7.17 17.4999C7.17 14.8266 7.17 14.4699 7.23 13.4449C7.24667 12.6283 7.4 11.8216 7.685 11.0583C7.93752 10.4041 8.32403 9.80996 8.81972 9.31398C9.31541 8.81801 9.90932 8.43116 10.5633 8.17825C11.3281 7.89333 12.1357 7.74005 12.9517 7.72492C14 7.67492 14.3333 7.66325 17.0067 7.66325C19.6783 7.66325 20.0367 7.66325 21.06 7.72492C21.8767 7.73992 22.6833 7.89325 23.4483 8.17825C24.7717 8.68992 25.815 9.73492 26.3267 11.0583C26.6133 11.8216 26.7667 12.6299 26.7817 13.4449C26.8317 14.4949 26.8417 14.8283 26.8417 17.4999C26.8417 20.1733 26.83 20.5066 26.7817 21.5549H26.7833Z" fill="white"/>
</svg>
