<svg width="34" height="35" viewBox="0 0 34 35" fill="none" xmlns="http://www.w3.org/2000/svg">
<path fill-rule="evenodd" clip-rule="evenodd" d="M33.6667 17.4999C33.6667 8.29325 26.205 0.833252 17 0.833252C7.79667 0.833252 0.333334 8.29659 0.333334 17.4999C0.333334 26.7049 7.79667 34.1666 17 34.1666C26.205 34.1666 33.6667 26.7049 33.6667 17.4999ZM25.21 7.49992H8.45167C7.65167 7.49992 7 8.13325 7 8.91658V25.7466C7 26.5299 7.65 27.1666 8.45167 27.1666H25.2117C25.5927 27.1706 25.9598 27.0234 26.2326 26.7572C26.5053 26.4911 26.6614 26.1276 26.6667 25.7466V8.91658C26.661 8.53569 26.5044 8.17261 26.2313 7.90702C25.9582 7.64143 25.5909 7.49502 25.21 7.49992ZM11.3767 10.2016C11.5988 10.2019 11.8187 10.246 12.0239 10.3313C12.229 10.4166 12.4153 10.5415 12.5721 10.6988C12.729 10.8561 12.8533 11.0428 12.938 11.2482C13.0227 11.4536 13.0662 11.6736 13.0658 11.8958C13.0655 12.1179 13.0214 12.3378 12.9361 12.5429C12.8508 12.7481 12.7259 12.9344 12.5686 13.0912C12.4113 13.2481 12.2246 13.3724 12.0192 13.4571C11.8139 13.5418 11.5938 13.5852 11.3717 13.5849C11.1495 13.5847 10.9296 13.5407 10.7244 13.4555C10.5193 13.3703 10.3329 13.2455 10.176 13.0883C10.019 12.931 9.89461 12.7444 9.8098 12.5391C9.72499 12.3338 9.68145 12.1137 9.68167 11.8916C9.68189 11.6694 9.72586 11.4495 9.81107 11.2443C9.89629 11.0392 10.0211 10.8528 10.1783 10.6959C10.3356 10.539 10.5222 10.4145 10.7275 10.3297C10.9328 10.2449 11.1528 10.2014 11.375 10.2016H11.3767ZM9.91667 14.8733H12.8383V24.2566H9.91667V14.8733ZM14.6667 14.8733H14.6633L14.6667 14.8699V14.8733ZM14.6667 14.8733H17.4617V16.1566H17.5C17.8883 15.4183 18.84 14.6399 20.2667 14.6399C23.2183 14.6399 23.7633 16.5833 23.7633 19.1099V24.2583H20.85V19.6916C20.85 18.6049 20.8317 17.2033 19.335 17.2033C17.8183 17.2033 17.585 18.3899 17.585 19.6133V24.2549H14.6667V14.8733Z" fill="white"/>
</svg>
