<svg width="34" height="35" viewBox="0 0 34 35" fill="none" xmlns="http://www.w3.org/2000/svg">
<path d="M33.6667 17.4999C33.6667 8.29325 26.205 0.833252 17 0.833252C7.79667 0.833252 0.333332 8.29659 0.333332 17.4999C0.333332 26.7049 7.79667 34.1666 17 34.1666C26.205 34.1666 33.6667 26.7049 33.6667 17.4999ZM27.3417 11.6399C26.7917 12.4599 26.0933 13.1833 25.2917 13.7583L25.305 14.2899C25.305 19.7149 21.1767 25.9649 13.6283 25.9649C11.3986 25.9664 9.21552 25.3258 7.34 24.1199C8.41453 24.2501 9.50418 24.167 10.5466 23.8756C11.589 23.5842 12.5637 23.0901 13.415 22.4216C12.5588 22.4051 11.7291 22.1216 11.0418 21.6106C10.3545 21.0997 9.84405 20.3868 9.58167 19.5716C10.1967 19.6899 10.8306 19.6659 11.435 19.5016C10.5069 19.3133 9.67228 18.8102 9.07246 18.0774C8.47263 17.3445 8.14441 16.4269 8.14333 15.4799V15.4266C8.69833 15.7349 9.32833 15.9183 10.0017 15.9416C9.13229 15.3622 8.51679 14.4728 8.28078 13.4551C8.04477 12.4373 8.20603 11.3678 8.73167 10.4649C9.76196 11.7328 11.0475 12.7697 12.5047 13.5082C13.962 14.2467 15.5583 14.6704 17.19 14.7516C16.9824 13.871 17.0716 12.9465 17.4438 12.1219C17.816 11.2973 18.4503 10.6188 19.2481 10.192C20.0458 9.76514 20.9622 9.61394 21.8548 9.76187C22.7473 9.9098 23.566 10.3486 24.1833 11.0099C25.1021 10.8275 25.9834 10.4911 26.79 10.0149C26.483 10.9652 25.8409 11.7714 24.9833 12.2833C25.7966 12.1868 26.5909 11.9694 27.34 11.6383L27.3417 11.6399Z" fill="white"/>
</svg>
